<svg width="48" height="48" viewBox="0 0 48 48" fill="none" xmlns="http://www.w3.org/2000/svg">
<path d="M22.7953 38.4L10.1953 30.6V16.8M22.7953 38.4V24.6M22.7953 38.4L35.3953 30.6V16.8M22.7953 24.6L10.1953 16.8M22.7953 24.6L35.3953 16.8M10.1953 16.8L22.7953 9.59998L35.3953 16.8" stroke="black" stroke-width="1.8" stroke-linejoin="round"/>
<path d="M2.39844 33C2.39844 33 2.39844 39 2.39844 41.4C2.39844 43.8 4.19844 44.4 5.39844 44.4C6.59844 44.4 13.1984 44.4 13.1984 44.4" stroke="black" stroke-width="1.8" stroke-linecap="round" stroke-linejoin="bevel"/>
<path d="M43.5 33C43.5 33 43.5 39 43.5 41.4C43.5 43.8 41.7 44.4 40.5 44.4C39.3 44.4 32.7 44.4 32.7 44.4" stroke="black" stroke-width="1.8" stroke-linecap="round" stroke-linejoin="bevel"/>
<path d="M13.5 3.60004C13.5 3.60004 7.5 3.60004 5.1 3.60004C2.7 3.60004 2.1 5.40004 2.1 6.60004C2.1 7.80004 2.1 14.4 2.1 14.4" stroke="black" stroke-width="1.8" stroke-linecap="round" stroke-linejoin="bevel"/>
<path d="M32.3984 3.59998C32.3984 3.59998 38.3984 3.59998 40.7984 3.59998C43.1984 3.59998 43.7984 5.39998 43.7984 6.59998C43.7984 7.79998 43.7984 14.4 43.7984 14.4" stroke="black" stroke-width="1.8" stroke-linecap="round" stroke-linejoin="bevel"/>
</svg>
