<svg width="19" height="18" viewBox="0 0 19 18" fill="none" xmlns="http://www.w3.org/2000/svg">
<path d="M15.9746 16.313H2.47461C2.32529 16.313 2.18209 16.2537 2.07651 16.1481C1.97093 16.0425 1.91161 15.8993 1.91161 15.75V7.312H4.16161C3.86861 7.734 3.76961 8.522 3.76961 9.021C3.76961 12.033 6.22661 14.484 9.24561 14.484C12.2656 14.484 14.7216 12.033 14.7216 9.021C14.7216 8.521 14.6506 7.746 14.2876 7.312H16.5376V15.75C16.5376 16.06 16.2856 16.313 15.9746 16.313ZM9.24461 5.568C9.69867 5.56734 10.1484 5.65615 10.5682 5.82933C10.9879 6.00252 11.3694 6.2567 11.6909 6.57735C12.0124 6.898 12.2676 7.27885 12.4418 7.69814C12.6161 8.11742 12.7061 8.56694 12.7066 9.021C12.7055 9.93795 12.3403 10.8169 11.6913 11.4647C11.0423 12.1124 10.1626 12.4758 9.24561 12.475C8.79146 12.4755 8.34166 12.3866 7.92191 12.2132C7.50215 12.0398 7.12067 11.7854 6.79926 11.4646C6.47785 11.1437 6.22281 10.7627 6.04871 10.3432C5.87462 9.9238 5.78487 9.47415 5.78461 9.02C5.78567 8.10332 6.15077 7.22459 6.79962 6.57706C7.44846 5.92952 8.32793 5.56721 9.24461 5.568ZM13.7246 2.25H15.4126C15.7226 2.25 15.9746 2.502 15.9746 2.813V4.5C15.9746 4.81 15.7226 5.063 15.4116 5.063H13.7246C13.5753 5.063 13.4321 5.00369 13.3265 4.8981C13.2209 4.79252 13.1616 4.64932 13.1616 4.5V2.812C13.1616 2.502 13.4146 2.25 13.7246 2.25ZM16.0846 2.10726e-06H2.36461C1.18261 2.10726e-06 0.224609 0.956002 0.224609 2.135V15.865C0.224609 17.045 1.18261 18 2.36461 18H16.0846C17.2666 18 18.2246 17.044 18.2246 15.865V2.135C18.2243 1.85428 18.1688 1.57637 18.0611 1.31713C17.9534 1.05789 17.7957 0.822413 17.5969 0.624146C17.3982 0.42588 17.1624 0.268711 16.9029 0.161619C16.6434 0.0545259 16.3653 -0.0003921 16.0846 2.10726e-06Z" fill="black"/>
</svg>
