<svg width="20" height="22" viewBox="0 0 20 22" fill="none" xmlns="http://www.w3.org/2000/svg">
<g clip-path="url(#clip0_3931_10907)">
<path d="M18.625 1.375H2.1207C1.36445 1.375 0.75 1.99805 0.75 2.76289V19.2371C0.75 20.002 1.36445 20.625 2.1207 20.625H18.625C19.3813 20.625 20 20.002 20 19.2371V2.76289C20 1.99805 19.3813 1.375 18.625 1.375ZM6.56797 17.875H3.71484V8.68828H6.57227V17.875H6.56797ZM5.14141 7.43359C4.22617 7.43359 3.48711 6.69023 3.48711 5.7793C3.48711 4.86836 4.22617 4.125 5.14141 4.125C6.05234 4.125 6.7957 4.86836 6.7957 5.7793C6.7957 6.69453 6.05664 7.43359 5.14141 7.43359ZM17.2629 17.875H14.4098V13.4062C14.4098 12.3406 14.3883 10.9699 12.9273 10.9699C11.4406 10.9699 11.2129 12.1301 11.2129 13.3289V17.875H8.35977V8.68828H11.0969V9.94297H11.1355C11.518 9.22109 12.4504 8.46055 13.8383 8.46055C16.7258 8.46055 17.2629 10.3641 17.2629 12.8391V17.875Z" fill="black"/>
</g>
<defs>
<clipPath id="clip0_3931_10907">
<rect width="19.25" height="22" fill="white" transform="translate(0.75)"/>
</clipPath>
</defs>
</svg>
