<svg width="319" height="29" viewBox="0 0 319 29" fill="none" xmlns="http://www.w3.org/2000/svg">
<path d="M0.0400002 28.34C0.52 27.6733 0.853333 26.8867 1.04 25.98C1.22667 25.0733 1.32 23.86 1.32 22.34V6.9C1.32 5.35333 1.22667 4.12666 1.04 3.22C0.853333 2.31333 0.52 1.52667 0.0400002 0.859998V0.699998H9.92C11.9733 0.699998 13.72 0.979998 15.16 1.54C16.6 2.1 17.68 2.88667 18.4 3.9C19.12 4.88667 19.48 6.04667 19.48 7.38C19.48 9.00667 18.8933 10.4067 17.72 11.58C16.5733 12.7267 15.04 13.4867 13.12 13.86V14.02C15.5467 14.2867 17.4533 15.0467 18.84 16.3C20.2267 17.5533 20.92 19.06 20.92 20.82C20.92 22.26 20.52 23.5667 19.72 24.74C18.9467 25.9133 17.7867 26.8333 16.24 27.5C14.72 28.1667 12.9067 28.5 10.8 28.5H0.0400002V28.34ZM9.4 12.86C10.7867 12.86 11.96 12.6733 12.92 12.3C13.9067 11.9 14.6533 11.3267 15.16 10.58C15.6933 9.80667 15.96 8.86 15.96 7.74C15.96 6.27333 15.3867 5.12667 14.24 4.3C13.12 3.47333 11.5333 3.06 9.48 3.06H4.64V12.86H9.4ZM4.64 15.18V26.14H9.8C11.3733 26.14 12.72 25.94 13.84 25.54C14.96 25.1133 15.8267 24.4867 16.44 23.66C17.0533 22.8333 17.36 21.82 17.36 20.62C17.36 18.8067 16.6667 17.4467 15.28 16.54C13.92 15.6333 11.9867 15.18 9.48 15.18H4.64ZM26.025 28.34C26.505 27.6733 26.8383 26.9 27.025 26.02C27.2117 25.1133 27.305 23.8733 27.305 22.3V6.86C27.305 5.31333 27.2117 4.08667 27.025 3.18C26.865 2.27333 26.5317 1.5 26.025 0.859998V0.699998H35.305C37.305 0.699998 39.025 0.993331 40.465 1.58C41.905 2.16667 42.9983 2.99333 43.745 4.06C44.5183 5.12667 44.905 6.38 44.905 7.82C44.905 9.20667 44.5183 10.4467 43.745 11.54C42.9717 12.6333 41.8517 13.4867 40.385 14.1C38.9183 14.7133 37.1983 15.02 35.225 15.02L34.745 14.94L37.265 14.62L49.025 28.42V28.5H44.705L33.625 15.1H30.585V22.3C30.585 23.8733 30.6783 25.1133 30.865 26.02C31.0517 26.9 31.385 27.6733 31.865 28.34V28.5H26.025V28.34ZM34.665 12.78C36.8517 12.78 38.5183 12.34 39.665 11.46C40.8117 10.58 41.385 9.38 41.385 7.86C41.385 6.28666 40.8117 5.1 39.665 4.3C38.545 3.47333 36.8917 3.06 34.705 3.06H30.585V12.78H34.665ZM64.1041 28.94C61.4907 28.94 59.1307 28.3267 57.0241 27.1C54.9441 25.8733 53.3174 24.1667 52.1441 21.98C50.9974 19.7933 50.4241 17.34 50.4241 14.62C50.4241 11.9 50.9974 9.44667 52.1441 7.26C53.3174 5.07333 54.9441 3.36667 57.0241 2.14C59.1307 0.886665 61.4907 0.259999 64.1041 0.259999C66.7441 0.259999 69.1041 0.886665 71.1841 2.14C73.2907 3.36667 74.9174 5.07333 76.0641 7.26C77.2374 9.44667 77.8241 11.9 77.8241 14.62C77.8241 17.34 77.2374 19.7933 76.0641 21.98C74.9174 24.1667 73.2907 25.8733 71.1841 27.1C69.1041 28.3267 66.7441 28.94 64.1041 28.94ZM64.1041 26.46C66.0507 26.46 67.7841 25.9667 69.3041 24.98C70.8507 23.9667 72.0374 22.5667 72.8641 20.78C73.7174 18.9933 74.1441 16.94 74.1441 14.62C74.1441 12.3 73.7174 10.2467 72.8641 8.46C72.0374 6.64667 70.8507 5.23333 69.3041 4.22C67.7841 3.20666 66.0507 2.7 64.1041 2.7C62.1574 2.7 60.4241 3.20666 58.9041 4.22C57.3841 5.23333 56.1974 6.64667 55.3441 8.46C54.4907 10.2467 54.0641 12.3 54.0641 14.62C54.0641 16.94 54.4907 18.9933 55.3441 20.78C56.1974 22.5667 57.3841 23.9667 58.9041 24.98C60.4241 25.9667 62.1574 26.46 64.1041 26.46ZM82.9244 6.78C82.551 5.42 82.1644 4.28667 81.7644 3.38C81.391 2.47333 80.911 1.63333 80.3244 0.859998V0.699998H86.2044V0.859998C85.831 1.63333 85.6577 2.44666 85.6844 3.3C85.7377 4.15333 85.951 5.27333 86.3244 6.66L91.0044 23.78H91.1644L97.5644 2.78L96.8844 0.699998H100.804L107.284 23.58H107.484L112.244 6.66C112.644 5.22 112.871 4.07333 112.924 3.22C113.004 2.36667 112.871 1.58 112.524 0.859998V0.699998H117.524V0.859998C116.911 1.58 116.404 2.38 116.004 3.26C115.631 4.11333 115.244 5.26 114.844 6.7L108.564 28.5H105.484L99.1644 6.14H99.0044L92.0844 28.5H88.9644L82.9244 6.78ZM121.405 28.34C121.911 27.6733 122.245 26.9 122.405 26.02C122.591 25.1133 122.685 23.8867 122.685 22.34V2.22L121.765 0.779999V0.699998H126.645L141.725 23.66H141.885V6.86C141.885 5.31333 141.791 4.08667 141.605 3.18C141.445 2.27333 141.111 1.5 140.605 0.859998V0.699998H145.805V0.859998C145.325 1.5 144.991 2.28666 144.805 3.22C144.618 4.12666 144.525 5.34 144.525 6.86V28.5H141.045L125.525 4.86H125.325V22.34C125.325 23.86 125.418 25.0733 125.605 25.98C125.791 26.8867 126.125 27.6733 126.605 28.34V28.5H121.405V28.34ZM164.465 28.94C163.425 28.94 162.412 28.78 161.425 28.46C160.439 28.14 159.599 27.7133 158.905 27.18L159.225 25.1C160.745 25.9533 162.279 26.38 163.825 26.38C165.479 26.38 166.812 25.9 167.825 24.94C168.839 23.98 169.345 22.4867 169.345 20.46V6.86C169.345 5.34 169.252 4.12666 169.065 3.22C168.879 2.28666 168.545 1.5 168.065 0.859998V0.699998H173.945V0.859998C173.465 1.5 173.132 2.27333 172.945 3.18C172.759 4.08667 172.665 5.31333 172.665 6.86V19.9C172.665 21.8467 172.305 23.5 171.585 24.86C170.865 26.22 169.892 27.2467 168.665 27.94C167.439 28.6067 166.039 28.94 164.465 28.94ZM192.51 28.94C189.897 28.94 187.537 28.3267 185.43 27.1C183.35 25.8733 181.724 24.1667 180.55 21.98C179.404 19.7933 178.83 17.34 178.83 14.62C178.83 11.9 179.404 9.44667 180.55 7.26C181.724 5.07333 183.35 3.36667 185.43 2.14C187.537 0.886665 189.897 0.259999 192.51 0.259999C195.15 0.259999 197.51 0.886665 199.59 2.14C201.697 3.36667 203.324 5.07333 204.47 7.26C205.644 9.44667 206.23 11.9 206.23 14.62C206.23 17.34 205.644 19.7933 204.47 21.98C203.324 24.1667 201.697 25.8733 199.59 27.1C197.51 28.3267 195.15 28.94 192.51 28.94ZM192.51 26.46C194.457 26.46 196.19 25.9667 197.71 24.98C199.257 23.9667 200.444 22.5667 201.27 20.78C202.124 18.9933 202.55 16.94 202.55 14.62C202.55 12.3 202.124 10.2467 201.27 8.46C200.444 6.64667 199.257 5.23333 197.71 4.22C196.19 3.20666 194.457 2.7 192.51 2.7C190.564 2.7 188.83 3.20666 187.31 4.22C185.79 5.23333 184.604 6.64667 183.75 8.46C182.897 10.2467 182.47 12.3 182.47 14.62C182.47 16.94 182.897 18.9933 183.75 20.78C184.604 22.5667 185.79 23.9667 187.31 24.98C188.83 25.9667 190.564 26.46 192.51 26.46ZM211.403 28.34C211.883 27.6733 212.216 26.9 212.403 26.02C212.59 25.1133 212.683 23.8733 212.683 22.3V6.86C212.683 5.31333 212.59 4.08667 212.403 3.18C212.243 2.27333 211.91 1.5 211.403 0.859998V0.699998H220.683C222.683 0.699998 224.403 0.993331 225.843 1.58C227.283 2.16667 228.376 2.99333 229.123 4.06C229.896 5.12667 230.283 6.38 230.283 7.82C230.283 9.20667 229.896 10.4467 229.123 11.54C228.35 12.6333 227.23 13.4867 225.763 14.1C224.296 14.7133 222.576 15.02 220.603 15.02L220.123 14.94L222.643 14.62L234.403 28.42V28.5H230.083L219.003 15.1H215.963V22.3C215.963 23.8733 216.056 25.1133 216.243 26.02C216.43 26.9 216.763 27.6733 217.243 28.34V28.5H211.403V28.34ZM220.043 12.78C222.23 12.78 223.896 12.34 225.043 11.46C226.19 10.58 226.763 9.38 226.763 7.86C226.763 6.28666 226.19 5.1 225.043 4.3C223.923 3.47333 222.27 3.06 220.083 3.06H215.963V12.78H220.043ZM238.905 6.94C238.905 5.36666 238.812 4.14 238.625 3.26C238.439 2.35333 238.105 1.55333 237.625 0.859998V0.699998H247.465C250.399 0.699998 252.999 1.28666 255.265 2.46C257.532 3.60667 259.279 5.23333 260.505 7.34C261.732 9.42 262.345 11.8333 262.345 14.58C262.345 17.3533 261.732 19.7933 260.505 21.9C259.279 23.98 257.532 25.6067 255.265 26.78C252.999 27.9267 250.399 28.5 247.465 28.5H237.625V28.34C238.159 27.7267 238.505 26.9667 238.665 26.06C238.825 25.1267 238.905 23.8333 238.905 22.18V6.94ZM246.665 26.14C249.092 26.14 251.212 25.7 253.025 24.82C254.839 23.94 256.239 22.6333 257.225 20.9C258.212 19.1667 258.705 17.06 258.705 14.58C258.705 12.1 258.212 10.0067 257.225 8.3C256.239 6.56667 254.839 5.26 253.025 4.38C251.212 3.5 249.092 3.06 246.665 3.06H242.225V26.14H246.665ZM264.095 28.34C264.682 27.78 265.162 27.1267 265.535 26.38C265.909 25.6067 266.375 24.5267 266.935 23.14C266.989 23.0067 267.042 22.8733 267.095 22.74C267.149 22.6067 267.202 22.4733 267.255 22.34L275.695 0.699998H278.615L287.295 22.14C287.349 22.3267 287.402 22.5 287.455 22.66C287.535 22.7933 287.602 22.94 287.655 23.1C288.189 24.46 288.655 25.54 289.055 26.34C289.455 27.1133 289.909 27.78 290.415 28.34V28.5H284.455V28.34C284.829 27.7 284.935 26.8867 284.775 25.9C284.642 24.8867 284.295 23.7 283.735 22.34L276.815 4.94H276.695L269.895 22.38C269.362 23.7933 269.029 24.98 268.895 25.94C268.789 26.9 268.935 27.7 269.335 28.34V28.5H264.095V28.34ZM269.975 19.9V17.5H283.495V19.9H269.975ZM294.166 28.34C294.672 27.6733 295.006 26.9 295.166 26.02C295.352 25.1133 295.446 23.8867 295.446 22.34V2.22L294.526 0.779999V0.699998H299.406L314.486 23.66H314.646V6.86C314.646 5.31333 314.552 4.08667 314.366 3.18C314.206 2.27333 313.872 1.5 313.366 0.859998V0.699998H318.566V0.859998C318.086 1.5 317.752 2.28666 317.566 3.22C317.379 4.12666 317.286 5.34 317.286 6.86V28.5H313.806L298.286 4.86H298.086V22.34C298.086 23.86 298.179 25.0733 298.366 25.98C298.552 26.8867 298.886 27.6733 299.366 28.34V28.5H294.166V28.34Z" fill="black"/>
</svg>
