<svg width="19" height="18" viewBox="0 0 19 18" fill="none" xmlns="http://www.w3.org/2000/svg">
<g clip-path="url(#clip0_3931_10905)">
<path d="M9.57357 0C7.47664 0.000610422 5.44575 0.733408 3.83155 2.07186C2.21735 3.41032 1.12118 5.27041 0.732303 7.33096C0.34343 9.39151 0.686268 11.5232 1.70162 13.3579C2.71697 15.1926 4.3411 16.6152 6.29357 17.38C6.21457 16.669 6.14357 15.576 6.32557 14.799C6.48857 14.097 7.38057 10.325 7.38057 10.325C7.38057 10.325 7.11057 9.786 7.11057 8.989C7.11057 7.738 7.83657 6.803 8.73957 6.803C9.50757 6.803 9.87857 7.38 9.87857 8.071C9.87857 8.844 9.38657 9.998 9.13357 11.068C8.92057 11.964 9.58157 12.695 10.4656 12.695C12.0656 12.695 13.2956 11.008 13.2956 8.573C13.2956 6.418 11.7456 4.911 9.53557 4.911C6.97557 4.911 5.47157 6.832 5.47157 8.817C5.47157 9.591 5.76957 10.42 6.14157 10.871C6.21457 10.961 6.22557 11.038 6.20357 11.129C6.13557 11.414 5.98357 12.025 5.95357 12.15C5.91357 12.314 5.82357 12.35 5.65357 12.27C4.52857 11.747 3.82557 10.104 3.82557 8.783C3.82557 5.945 5.88857 3.337 9.77257 3.337C12.8946 3.337 15.3216 5.562 15.3216 8.535C15.3216 11.637 13.3656 14.133 10.6516 14.133C9.73857 14.133 8.88157 13.659 8.58857 13.1C8.58857 13.1 8.13657 14.818 8.02757 15.24C7.82457 16.02 7.27557 17 6.90757 17.598C8.14505 17.9808 9.45058 18.092 10.735 17.9239C12.0194 17.7559 13.2523 17.3126 14.3497 16.6243C15.447 15.936 16.3828 15.0189 17.0932 13.9357C17.8036 12.8525 18.2718 11.6288 18.4658 10.3481C18.6598 9.06734 18.5751 7.75983 18.2174 6.51485C17.8597 5.26988 17.2375 4.11678 16.3933 3.13434C15.5491 2.1519 14.5027 1.36327 13.3258 0.822334C12.1488 0.281396 10.8689 0.000897137 9.57357 0Z" fill="black"/>
</g>
<defs>
<clipPath id="clip0_3931_10905">
<rect width="18" height="18" fill="white" transform="translate(0.574219)"/>
</clipPath>
</defs>
</svg>
