<svg width="20" height="16" viewBox="0 0 20 16" fill="none" xmlns="http://www.w3.org/2000/svg">
<path d="M19.6068 1.894C18.8747 2.22045 18.0977 2.43485 17.3018 2.53C18.1412 2.02334 18.768 1.22912 19.0658 0.295001C18.2791 0.764902 17.4176 1.09638 16.5188 1.275C16.1445 0.872415 15.6913 0.551387 15.1873 0.332001C14.6833 0.112616 14.1394 -0.000408013 13.5898 1.10673e-06C11.3738 1.10673e-06 9.57778 1.808 9.57778 4.04C9.57778 4.355 9.61378 4.664 9.68178 4.96C8.08385 4.87822 6.52119 4.45995 5.09607 3.73257C3.67094 3.00518 2.41546 1.98508 1.41178 0.739001C1.05507 1.356 0.867741 2.05631 0.868781 2.769C0.868781 4.171 1.57778 5.408 2.65378 6.132C2.01635 6.11202 1.39311 5.9388 0.836781 5.627V5.677C0.834574 6.60694 1.15365 7.5091 1.74003 8.23087C2.32641 8.95264 3.1441 9.44971 4.05478 9.638C3.46414 9.79995 2.84416 9.8239 2.24278 9.708C2.49635 10.5084 2.99416 11.2093 3.66635 11.7124C4.33854 12.2154 5.15137 12.4954 5.99078 12.513C4.57241 13.635 2.81628 14.2444 1.00778 14.242C0.683781 14.242 0.364781 14.222 0.0507812 14.186C1.8827 15.3716 4.01866 16.0017 6.20078 16C13.5808 16 17.6158 9.845 17.6158 4.507C17.6158 4.332 17.6118 4.158 17.6048 3.984C18.3912 3.41206 19.0692 2.70428 19.6068 1.894Z" fill="black"/>
</svg>
